<?xml version="1.0" encoding="iso-8859-1"?>
<!-- Generator: Adobe Illustrator 19.0.0, SVG Export Plug-In . SVG Version: 6.00 Build 0)  -->
<svg version="1.1" id="Layer_1" xmlns="http://www.w3.org/2000/svg" xmlns:xlink="http://www.w3.org/1999/xlink" x="0px" y="0px"
	 viewBox="0 0 512 512" style="enable-background:new 0 0 512 512;" xml:space="preserve">
<circle style="fill:#7AB9E8;" cx="256" cy="256" r="256"/>
<path style="fill:#579ADF;" d="M256,0v512c141.385,0,256-114.615,256-256S397.385,0,256,0z"/>
<path style="fill:#FFEA8A;" d="M270.222,348.444c-24.691,0-47.908-9.616-65.368-27.076c-12.568-12.568-20.739-27.887-24.543-44.035
	h146.806v-42.667H180.311c3.804-16.148,11.975-31.467,24.543-44.035c36.045-36.045,94.692-36.045,130.736,0l30.17-30.17
	c-52.681-52.681-138.395-52.681-191.076,0c-20.907,20.907-33.485,47.022-37.797,74.204h-23.11v42.667h23.11
	c4.312,27.183,16.89,53.298,37.797,74.204c25.52,25.519,59.449,39.573,95.538,39.573c0.001,0-0.001,0,0.001,0
	c36.086,0,70.019-14.056,95.536-39.573l-30.17-30.17C318.13,338.829,294.915,348.444,270.222,348.444z"/>
<g>
	<path style="fill:#FFDB2D;" d="M335.59,190.632l30.17-30.17c-29.956-29.955-70.589-42.854-109.76-38.741v42.988
		C284.156,160.358,313.947,168.988,335.59,190.632z"/>
	<rect x="256" y="234.667" style="fill:#FFDB2D;" width="71.111" height="42.667"/>
	<path style="fill:#FFDB2D;" d="M270.222,348.444c-4.809,0-9.559-0.375-14.222-1.092v43.017c4.695,0.488,9.439,0.742,14.222,0.742
		c0.001,0-0.001,0,0.001,0c36.086,0,70.019-14.056,95.536-39.573l-30.17-30.17C318.13,338.829,294.915,348.444,270.222,348.444z"/>
</g>
<g>
</g>
<g>
</g>
<g>
</g>
<g>
</g>
<g>
</g>
<g>
</g>
<g>
</g>
<g>
</g>
<g>
</g>
<g>
</g>
<g>
</g>
<g>
</g>
<g>
</g>
<g>
</g>
<g>
</g>
</svg>
