<svg xmlns="http://www.w3.org/2000/svg" xmlns:xlink="http://www.w3.org/1999/xlink" viewBox="0 0 305.4 189.11"><defs><style>.cls-1{fill:url(#linear-gradient);}.cls-2{fill:url(#linear-gradient-2);}.cls-3{fill:url(#linear-gradient-3);}.cls-4{fill:#b2d235;}.cls-5{fill:#6f605a;}.cls-6{fill:none;}</style><linearGradient id="linear-gradient" x1="177.33" y1="38.44" x2="182.46" y2="62.22" gradientUnits="userSpaceOnUse"><stop offset="0" stop-color="#fecd87"/><stop offset="1" stop-color="#fcb316"/></linearGradient><linearGradient id="linear-gradient-2" x1="139.74" y1="26.09" x2="128.66" y2="54.74" gradientUnits="userSpaceOnUse"><stop offset="0" stop-color="#f37377"/><stop offset="1" stop-color="#ee304b"/></linearGradient><linearGradient id="linear-gradient-3" x1="157.79" y1="48.71" x2="136.98" y2="105.19" gradientUnits="userSpaceOnUse"><stop offset="0" stop-color="#bfd730"/><stop offset="1" stop-color="#39b54a"/></linearGradient></defs><g id="Layer_2" data-name="Layer 2"><g id="Logo_new"><g id="Armeflhor_sign_copy" data-name="Armeflhor_sign copy"><path class="cls-1" d="M213.91,59.82A61.2,61.2,0,0,0,165.56,0a33.27,33.27,0,0,1,9.22,5,26.85,26.85,0,0,1,8.36,11.15c1.92,4.58,3,12.37,3,17.38V81.72c-.26,17.72-10,32.22-24.45,38.63A61.18,61.18,0,0,0,213.91,59.82Z"/><path class="cls-2" d="M130.11,49.1c16.62-8.09,35.61-9.83,43.16-10.2l.62-.14h.51V36.17a39.81,39.81,0,0,0-1.78-12.59,20.52,20.52,0,0,0-6-9.09,24.81,24.81,0,0,0-10.18-5.06,56.64,56.64,0,0,0-13.91-1.51H120.35a61.15,61.15,0,0,0-16,89.35,41.66,41.66,0,0,1-1.13-9.89C103.25,70.65,112.28,57.77,130.11,49.1Z"/><path class="cls-3" d="M115.44,87.38c0,14.89,11.16,24.14,29.13,24.14,16.33,0,29.12-13.41,29.12-30.53V51.12C162.62,51.69,115.44,56,115.44,87.38Z"/><path class="cls-4" d="M144.42,64.59s-2.42,6.8,1.45,11.27q-3.84,4.32-7.09,8.56c-3.17-2.78-5.54-7-6.39-13.08,0,0-2.42,10.64,3.65,16.73-1.87,2.57-3.58,5.09-5.15,7.53-3.57-2.77-6.16-7.15-6.62-13.95,0,0-1.5,11.18,4.34,17.59-1.53,2.53-2.56,4.72-3.77,7a12.75,12.75,0,0,0,4.25,2.26c1.21-2.21,2.3-4.11,3.6-6.26,5.19,2.39,13.45,2.13,26.55-4,0,0-13.7,3.94-24-.19,1.59-2.48,3.21-4.92,4.86-7.29,5.75,2.43,15.38,2.16,31.36-4.25,0,0-17,6.14-28.7.51,2.19-3,4.39-5.93,6.57-8.69,4.11,1.79,11,2.1,22.55-.91,0,0-11.79,2-20-2.31a282.11,282.11,0,0,1,21.76-24,158.55,158.55,0,0,0-25.07,21.72A13.39,13.39,0,0,1,144.42,64.59Z"/><path class="cls-5" d="M42.64,152.91A11.88,11.88,0,0,0,38,155.18a9.89,9.89,0,0,0-2.9,4.1,16.56,16.56,0,0,0-1,6v23.33h6.56V166.48c0-2.73.65-4.74,1.91-6s3.38-1.86,6.25-1.86h6.32v-6.42H48.82A25.69,25.69,0,0,0,42.64,152.91Z"/><path class="cls-5" d="M109.11,154.71a12,12,0,0,0-4.71-2.27,26.07,26.07,0,0,0-6.21-.68A18.35,18.35,0,0,0,90,153.27a7.66,7.66,0,0,0-3.45,3.55,7.46,7.46,0,0,0-3.42-3.55A18.11,18.11,0,0,0,75,151.76a26.07,26.07,0,0,0-6.21.68,12,12,0,0,0-4.71,2.27,10.06,10.06,0,0,0-2.94,4.1,16.36,16.36,0,0,0-1,6v23.79h6.56V166a13,13,0,0,1,.44-3.59A5.62,5.62,0,0,1,68.49,160,5.78,5.78,0,0,1,71,158.65a17.32,17.32,0,0,1,7.93,0A5.76,5.76,0,0,1,81.42,160a5.53,5.53,0,0,1,1.39,2.38,12.56,12.56,0,0,1,.46,3.58v22.66h6.56v-23a12,12,0,0,1,.54-3.42,5.15,5.15,0,0,1,1.39-2.24,6,6,0,0,1,2.48-1.31,17.52,17.52,0,0,1,7.89,0,5.83,5.83,0,0,1,2.53,1.38,5.34,5.34,0,0,1,1.38,2.36,13.05,13.05,0,0,1,.44,3.59v22.66H113V164.85a16.36,16.36,0,0,0-1-6A10,10,0,0,0,109.11,154.71Z"/><path class="cls-5" d="M149.07,155.79a10.77,10.77,0,0,0-4.4-2.72,18.67,18.67,0,0,0-5.82-.84h-2a20,20,0,0,0-6,.84,11.91,11.91,0,0,0-4.7,2.7,12.18,12.18,0,0,0-3,4.72,19.9,19.9,0,0,0-1.06,6.86v5.83a18,18,0,0,0,1.23,6.94A12.68,12.68,0,0,0,126.9,185a15.05,15.05,0,0,0,5.57,2.79,27.39,27.39,0,0,0,7.24.89H150.4v-6.36H139.65a18.21,18.21,0,0,1-4.82-.57,8,8,0,0,1-3.32-1.73,7.32,7.32,0,0,1-1.95-3.1,14.85,14.85,0,0,1-.67-4.8l23.85-.05v-4.68a22.44,22.44,0,0,0-.93-6.84A12.09,12.09,0,0,0,149.07,155.79Zm-12.22,2.86h2a7.19,7.19,0,0,1,5.35,1.81c1.13,1.16,1.72,3,1.77,5.44H128.89a8.84,8.84,0,0,1,.57-3.07,6.17,6.17,0,0,1,1.58-2.32,6.77,6.77,0,0,1,2.49-1.38A10.87,10.87,0,0,1,136.85,158.65Z"/><path class="cls-5" d="M170.58,138.53a9.36,9.36,0,0,0-3.89,2.29,9.83,9.83,0,0,0-2.35,4.06,20.16,20.16,0,0,0-.76,5.89v1.46h-6.2v6.42h6.2v30h6.57v-30h10.94v-6.42H170.15v-1.06a16.37,16.37,0,0,1,.28-3.3,4.66,4.66,0,0,1,.95-2.08,3.73,3.73,0,0,1,1.84-1.15,11.65,11.65,0,0,1,3.32-.39h5.28v-6.43h-5.95A17.83,17.83,0,0,0,170.58,138.53Z"/><rect class="cls-5" x="186.07" y="137.82" width="6.56" height="50.83"/><path class="cls-5" d="M229.49,154.72a10.64,10.64,0,0,0-4.35-2.27,22.28,22.28,0,0,0-5.84-.69,17.66,17.66,0,0,0-3.57.34,16.05,16.05,0,0,0-3,.94,11.45,11.45,0,0,0-2.42,1.39c-.22.17-.43.34-.62.52V137.82h-6.57v50.82h6.57V166c0-2.8.73-4.82,2.18-6s3.78-1.81,6.81-1.81a13,13,0,0,1,3.72.46,5.46,5.46,0,0,1,2.39,1.37,5.56,5.56,0,0,1,1.34,2.37,13.05,13.05,0,0,1,.44,3.59v22.66h6.53V164.85a18.3,18.3,0,0,0-.88-6A9.88,9.88,0,0,0,229.49,154.72Z"/><path class="cls-5" d="M258.92,151.76h-.43c-5.35,0-9.46,1.32-12.21,3.93s-4.15,6.64-4.15,12v5.53c0,5.33,1.41,9.36,4.19,12s6.88,4,12.24,4H259c5.36,0,9.45-1.33,12.18-4s4.11-6.65,4.11-12v-5.53c0-5.32-1.39-9.35-4.15-12S264.28,151.76,258.92,151.76Zm-10,17a21.15,21.15,0,0,1,.5-4.91,7.47,7.47,0,0,1,1.58-3.23,6.7,6.7,0,0,1,2.91-1.83,14.79,14.79,0,0,1,4.6-.62h.43a14.67,14.67,0,0,1,4.57.62,6.6,6.6,0,0,1,2.9,1.83,7.56,7.56,0,0,1,1.61,3.23,20.59,20.59,0,0,1,.52,4.91v3.3A20.77,20.77,0,0,1,268,177a7.57,7.57,0,0,1-1.61,3.26,6.64,6.64,0,0,1-2.9,1.87,14.34,14.34,0,0,1-4.57.64h-.43a14.49,14.49,0,0,1-4.6-.64,6.64,6.64,0,0,1-2.9-1.87A7.45,7.45,0,0,1,249.4,177a21.42,21.42,0,0,1-.5-4.94Z"/><path class="cls-5" d="M299.08,152.23a25.69,25.69,0,0,0-6.18.68,11.88,11.88,0,0,0-4.66,2.27,10,10,0,0,0-2.91,4.1,16.79,16.79,0,0,0-1,6v23.33h6.56V166.48c0-2.73.64-4.74,1.91-6s3.37-1.86,6.25-1.86h6.32v-6.42Z"/><path class="cls-6" d="M18,170.05c-3.86.44-11.29,2-11.29,7.31,0,3.94,4,4.37,5.65,4.37a5.77,5.77,0,0,0,5.64-6Z"/><path class="cls-5" d="M23.85,158.48a8.62,8.62,0,0,0-2.68-3.57A11,11,0,0,0,17,153a22.38,22.38,0,0,0-5.2-.57H2.43v6.47h9.4a12.55,12.55,0,0,1,3.11.33,4.37,4.37,0,0,1,1.87.91,3.44,3.44,0,0,1,1,1.54,6.8,6.8,0,0,1,.32,1.65A31.18,31.18,0,0,0,7.87,166C2.72,168.47,0,172.41,0,177.36c0,6.75,4.85,11.12,12.35,11.12,7,0,12.28-5.39,12.39-12.57V163.6A15.17,15.17,0,0,0,23.85,158.48Zm-11.5,23.25c-1.7,0-5.65-.43-5.65-4.37,0-5.32,7.43-6.87,11.29-7.31v5.68A5.77,5.77,0,0,1,12.35,181.73Z"/></g></g></g></svg>